<svg width="148" height="112" viewBox="0 0 148 112" fill="none" xmlns="http://www.w3.org/2000/svg">
<path d="M83.7911 2.35318C86.9175 -0.784438 91.9985 -0.784348 95.1251 2.35318L145.669 53.0749C148.78 56.1968 148.78 61.2469 145.669 64.3688L132.775 77.3073C132.759 77.324 132.732 77.324 132.715 77.3073C132.698 77.2909 132.671 77.2907 132.654 77.3073L107.595 102.457C104.468 105.594 99.3872 105.594 96.2608 102.457L88.6075 94.776C85.4967 91.6542 85.4967 86.604 88.6075 83.4821L108.11 63.9098C111.221 60.7879 111.221 55.7377 108.11 52.6159L102.02 46.5036C98.8931 43.3664 93.8129 43.3672 90.6866 46.5045L27.7686 109.643C24.6422 112.781 19.5611 112.781 16.4346 109.643L2.33306 95.4928C-0.777745 92.371 -0.777629 87.3208 2.33306 84.1989L70.9327 15.3581C70.9462 15.3443 70.9462 15.322 70.9327 15.3083C70.9189 15.2945 70.9189 15.2722 70.9327 15.2585L83.7911 2.35318Z" fill="white"/>
</svg>
